<?xml version="1.0" encoding="utf-8"?>
<!-- Generator: Adobe Illustrator 19.0.0, SVG Export Plug-In . SVG Version: 6.00 Build 0)  -->
<svg version="1.1" id="Capa_1" xmlns="http://www.w3.org/2000/svg" xmlns:xlink="http://www.w3.org/1999/xlink" x="0px" y="0px"
	 width="600px" height="600px" viewBox="0 0 600 600" style="enable-background:new 0 0 600 600;" xml:space="preserve">
<style type="text/css">
	.st0{fill:none;}
	.st1{fill:none;stroke:#2A190F;stroke-width:0.5;stroke-linecap:round;stroke-miterlimit:10;}
	.st2{fill:#959798;}
	.st3{fill:#5D6FED;}
	.st4{fill:#3E4DEE;}
	.st5{fill:#FFFFFF;}
	.st6{fill:#E0E0D1;}
	.st7{fill:#848588;}
	.st8{fill:#C75C5C;}
	.st9{fill:#FCF6F6;}
</style>
<symbol  id="Auge_3" viewBox="-12.5 -10 25 20">
	<polygon id="XMLID_63_" class="st0" points="-12.5,-10 12.5,-10 12.5,10 -12.5,10 	"/>
	<path id="XMLID_62_" class="st1" d="M-7-1c1,1,2.1,2.9,4.2,0.4"/>
	<path id="XMLID_61_" class="st1" d="M2.3-1c1.3,2,3.1,2.9,4.2,0"/>
</symbol>
<symbol  id="Kopfschmuck" viewBox="-18.9 -10 37.7 20">
	<polygon id="XMLID_64_" class="st0" points="-18.9,-10 18.8,-10 18.8,10 -18.9,10 	"/>
	<path id="XMLID_63_" class="st2" d="M-8.7-5.8c0,0-0.3,0.6-0.9,1.5c-0.5,0.9-1.3,2-2,3.2C-12-0.5-12.4,0-12.7,0.6
		c-0.3,0.5-0.7,1-1,1.4c0.1,0.1,0.2,0.3,0.3,0.4c0.9,1.5,0.5,3.3-0.7,4C-15.4,7.1-17,6.5-18,5c-0.9-1.5-0.5-3.3,0.7-4
		c0.7-0.4,1.6-0.4,2.4,0c0.3-0.4,0.6-0.8,0.9-1.3c0.4-0.5,0.8-1.1,1.2-1.6c0.8-1.1,1.7-2.2,2.3-3c0.7-0.8,1.1-1.3,1.1-1.3
		C-9.2-6.4-9-6.4-8.9-6.3C-8.7-6.2-8.6-6-8.7-5.8z"/>
	<path id="XMLID_62_" class="st2" d="M8.6-5.8c0,0,0.3,0.6,0.9,1.5c0.5,0.9,1.3,2,2,3.2c0.4,0.6,0.8,1.1,1.1,1.7
		c0.3,0.5,0.7,1,1,1.4c-0.1,0.1-0.2,0.3-0.3,0.4c-0.9,1.5-0.5,3.3,0.7,4c1.3,0.7,3,0.1,3.9-1.4s0.5-3.3-0.7-4
		c-0.7-0.4-1.6-0.4-2.4,0c-0.3-0.4-0.6-0.8-0.9-1.3C13.4-0.9,13-1.4,12.6-2c-0.8-1.1-1.7-2.2-2.3-3C9.6-5.7,9.1-6.2,9.1-6.2
		C9-6.4,8.8-6.4,8.7-6.3C8.5-6.2,8.5-6,8.6-5.8z"/>
</symbol>
<path id="XMLID_32_" class="st3" d="M28.3,321.6c3.3,50.7,123.4,91.9,270.8,91.9s267.5-41.1,270.8-91.9
	C566.5,357,31.6,357,28.3,321.6z"/>
<ellipse id="XMLID_31_" class="st4" cx="299.1" cy="319.7" rx="271.3" ry="65.1"/>
<path id="XMLID_30_" class="st4" d="M299.1,413.5c-57.4,0-111-6.2-154.5-16.7c12.9,23.4,25.4,44.5,34.9,50.7s78,16.7,118.7,16.3
	c40.7,0.5,109.1-9.6,118.7-16.3c9.6-6.2,22-26.8,34.9-50.2C408.6,407.3,356,413.5,299.1,413.5z"/>
<path id="XMLID_29_" class="st5" d="M463.7,315.4c3.3-12,5.3-24.4,5.3-37.3c0-83.7-74.2-151.7-165.5-151.7s-166,67.9-166,151.7
	c0,13.4,1.9,26.3,5.3,38.3C227.8,335,360.3,335.5,463.7,315.4z"/>
<ellipse id="XMLID_28_" class="st6" cx="299.1" cy="356.1" rx="19.1" ry="11.5"/>
<ellipse id="XMLID_27_" transform="matrix(-0.9862 -0.1653 0.1653 -0.9862 296.1654 710.8334)" class="st6" cx="177.7" cy="343.1" rx="19.1" ry="11.5"/>
<ellipse id="XMLID_26_" transform="matrix(-0.1653 -0.9862 0.9862 -0.1653 151.7181 814.6587)" class="st6" cx="420.6" cy="343.1" rx="11.5" ry="19.1"/>
<g id="XMLID_50_">
	<circle id="XMLID_25_" class="st7" cx="107.2" cy="154.6" r="15.8"/>
	<circle id="XMLID_24_" class="st7" cx="257.9" cy="52.2" r="8.6"/>
	<circle id="XMLID_23_" class="st7" cx="440.2" cy="70.4" r="13.9"/>
	<circle id="XMLID_22_" class="st7" cx="430.2" cy="299.1" r="13.9"/>
	<circle id="XMLID_21_" class="st7" cx="449.3" cy="138.8" r="5.3"/>
	<circle id="XMLID_20_" class="st7" cx="420.6" cy="190.2" r="5.3"/>
	<circle id="XMLID_19_" class="st7" cx="91.4" cy="203" r="7.7"/>
	<circle id="XMLID_18_" class="st7" cx="207.2" cy="503.4" r="15.3"/>
	<circle id="XMLID_17_" class="st7" cx="330.7" cy="524" r="6.2"/>
	<circle id="XMLID_16_" class="st7" cx="176" cy="299.1" r="6.2"/>
	<circle id="XMLID_15_" class="st7" cx="392.9" cy="555.1" r="5.3"/>
	<circle id="XMLID_14_" class="st7" cx="461.3" cy="488.1" r="19.6"/>
	<circle id="XMLID_13_" class="st7" cx="528.7" cy="423.1" r="7.2"/>
	<circle id="XMLID_12_" class="st7" cx="545" cy="193.9" r="9.1"/>
</g>
<g id="XMLID_47_">
	<path id="XMLID_11_" class="st6" d="M268.5,303.9c0,8.6,0.5,22.5-0.5,23.4c-1,1.4-11-0.5-16.7,1.9c12.9,0.5,26.3,1,39.7,1
		c0.5-6.7,0.5-19.6,1-26.3C283.3,304.4,275.2,304.4,268.5,303.9z"/>
	<path id="XMLID_10_" class="st6" d="M338.3,303.9c-7.7,0-15.8,0-23.4,0.5c0,6.7,0.5,19.6,1,26.3c12.4-0.5,25.4-1,37.8-1.4
		c-5.7-1.4-13.9,0-14.4-1.4C337.8,326.4,338.3,312.5,338.3,303.9z"/>
</g>
<g id="XMLID_34_">
	
		<use xlink:href="#Kopfschmuck"  width="37.7" height="20" id="XMLID_9_" x="-18.9" y="-10" transform="matrix(4.7847 0 0 -4.7847 302.3927 133.5596)" style="overflow:visible;"/>
	<g id="XMLID_42_">
		<path id="XMLID_8_" class="st6" d="M229.2,224c-6.7,5.7-35.4,21.5-39.2,24.4c-3.8,2.9-9.6,12-7.2,16.3c2.4,4.3,15.8,4.3,23,0
			s27.3-18.7,27.3-18.7"/>
		<path id="XMLID_7_" class="st6" d="M377.1,226.9c8.6,5.3,35.4,20.1,39.2,24.4c3.8,4.3,7.7,7.7,5.7,12s-17.2,3.8-24.9,0
			s-23.9-17.7-23.9-17.7"/>
		<path id="XMLID_6_" class="st6" d="M246.9,155.1c15.3-0.5,96.7-1.4,107.7,0s30.6,3.3,34.9,24.9s4.8,90,4.3,98.1
			c-1,8.1-1.4,29.7-39.7,30.1c-38.3,1-88.5,1-99,0c-10.5-1-37.3-3.3-40.7-29.7c-3.3-26.3-2.4-84.7,0-94.7
			C216.3,173.8,216.3,156.1,246.9,155.1z"/>
	</g>
	
		<use xlink:href="#Auge_3"  width="25" height="20" id="XMLID_5_" x="-12.5" y="-10" transform="matrix(4.7847 0 0 -4.7847 300.0377 198.122)" style="overflow:visible;"/>
	<g id="XMLID_35_">
		<rect id="XMLID_4_" x="228.3" y="212.5" class="st0" width="143.5" height="95.7"/>
		<g id="XMLID_36_">
			<path id="XMLID_3_" d="M250.8,231.7c12.9-1,71.3-1,99,0c-1,24.9-15.3,58.4-45.9,58.4C265.1,290,250.8,247,250.8,231.7z"/>
			<path id="XMLID_2_" class="st8" d="M330.7,278.6c-4.3-5.3-8.6-11-10.5-12c-2.9-1.9-13.4,1-17.2,1.4c-3.8,0.5-10-1.4-17.2-1.4
				c-4.8,0-7.7,5.7-12,12.4c7.7,6.2,17.7,11,29.7,11C314.9,290,324,285.3,330.7,278.6z"/>
			<path id="XMLID_1_" class="st9" d="M341.7,231.2c-23.4-0.5-59.8-0.5-79.4,0c2.4,7.2,5.7,15.8,8.6,16.7c4.3,1.4,8.6-4.3,9.1-6.2
				c1.9,3.8,3.3,5.7,6.2,6.7c2.9,0.5,7.2-3.3,8.1-4.8c1.4,1.4,2.9,5.3,5.7,5.3c2.9,0,8.1-3.3,9.1-5.3c0.5,3.3,3.3,5.3,5.7,5.3
				s8.6-3.3,9.1-5.7c1,3.8,3.8,6.2,5.7,6.2C331.1,248.9,337.4,245.1,341.7,231.2z"/>
		</g>
	</g>
</g>
<g id="XMLID_33_">
</g>
<g id="XMLID_37_">
</g>
<g id="XMLID_38_">
</g>
<g id="XMLID_39_">
</g>
<g id="XMLID_40_">
</g>
<g id="XMLID_41_">
</g>
<g id="XMLID_43_">
</g>
<g id="XMLID_44_">
</g>
<g id="XMLID_45_">
</g>
<g id="XMLID_46_">
</g>
<g id="XMLID_48_">
</g>
<g id="XMLID_49_">
</g>
<g id="XMLID_51_">
</g>
<g id="XMLID_52_">
</g>
<g id="XMLID_53_">
</g>
<g id="XMLID_54_">
</g>
<g id="XMLID_55_">
</g>
<g id="XMLID_57_">
</g>
<g id="XMLID_58_">
</g>
<g id="XMLID_59_">
</g>
<g id="XMLID_60_">
</g>
</svg>
