<?xml version="1.0" encoding="utf-8"?>
<!-- Generator: Adobe Illustrator 19.0.0, SVG Export Plug-In . SVG Version: 6.00 Build 0)  -->
<svg version="1.1" id="Capa_1" xmlns="http://www.w3.org/2000/svg" xmlns:xlink="http://www.w3.org/1999/xlink" x="0px" y="0px"
	 width="381px" height="153.5px" viewBox="-289 204.5 381 153.5" style="enable-background:new -289 204.5 381 153.5;"
	 xml:space="preserve">
<g id="XMLID_1_">
	<g id="XMLID_2_">
		<circle id="XMLID_6_" cx="-246.1" cy="237.5" r="4.7"/>
		<circle id="XMLID_5_" cx="-233.6" cy="227.7" r="5.4"/>
		<path id="XMLID_3_" d="M-208.4,313.4l-21.3-35.2v-19.6h0.6c3.1,0,5.6-2.5,5.6-5.6s-2.5-5.6-5.6-5.6H-254c-3.1,0-5.6,2.5-5.6,5.6
			s2.5,5.6,5.6,5.6h0.5v19.7l-21.3,35.2c-3.7,7.5,1.7,16.3,10.1,16.3h46.2C-210.1,329.7-204.6,320.9-208.4,313.4z M-226.6,319.1h-30
			c-3.4,0-5.3-3.8-3.4-6.5l15.3-22.2c1.7-2.4,5.3-2.4,6.9,0.1l14.7,22.2C-221.3,315.4-223.3,319.1-226.6,319.1z"/>
	</g>
	<g id="XMLID_8_">
		<path id="XMLID_62_" d="M-178.3,315.7c0-3.2,0.6-6.5,1.8-9.9s3-6.5,5.3-9.5s5-5.7,8.2-8c3.2-2.4,6.8-4.1,10.7-5.4
			c-2-1.7-3.9-3.4-5.7-5.2c-1.8-1.8-3.3-3.7-4.6-5.6s-2.4-3.8-3.1-5.7c-0.8-1.9-1.1-3.8-1.1-5.8c0-2.4,0.3-4.8,0.8-7
			s1.3-4.2,2.2-6.1s2.1-3.6,3.4-5.1s2.7-2.8,4.2-3.9s3-1.9,4.6-2.5s3.2-0.9,4.9-0.9c2.2,0,4.2,0.6,6.2,1.7c2,1.1,3.8,2.8,5.3,5.2
			c1.6,2.4,2.8,5.5,3.7,9.3s1.4,8.4,1.4,13.8c0,3.9-0.1,7.6-0.4,11.1c-0.3,3.5-0.7,6.9-1.2,10.1c1.5,0.9,2.9,1.8,4.4,2.7
			s3,1.7,4.5,2.6c0.3,0.2,0.7,0.4,1.2,0.7s0.9,0.5,1.4,0.8c0.4,0.3,0.8,0.6,1.1,0.9c0.3,0.3,0.5,0.6,0.5,0.8s-0.1,0.5-0.3,0.7
			c-0.2,0.2-0.4,0.4-0.7,0.6c-0.3,0.2-0.6,0.4-0.8,0.5c-0.3,0.1-0.5,0.3-0.6,0.3c-0.4,0.2-0.9,0.3-1.6,0.3c-1.3,0-2.9-0.3-4.7-0.8
			c-1.8-0.5-3.8-1.2-5.9-2.1c-1.1,4.4-2.3,8.5-3.8,12.2s-3.1,7-4.8,9.9s-3.6,5.5-5.5,7.6c-2,2.2-3.9,4-5.9,5.4s-4,2.5-6,3.2
			s-3.9,1.1-5.7,1.1c-1.9,0-3.6-0.4-5.3-1.1c-1.6-0.8-3-1.9-4.2-3.4s-2.1-3.4-2.8-5.7C-177.9,321.4-178.3,318.7-178.3,315.7z
			 M-169.1,318c0,2.4,0.5,4.3,1.4,5.5c0.9,1.3,2.2,1.9,3.8,1.9s3.4-0.7,5.4-2.1s4-3.5,6-6.4s3.9-6.6,5.8-11.1
			c1.8-4.5,3.4-9.8,4.6-16l-1.3-0.8c-2.4,0.5-4.8,1.3-7,2.5s-4.3,2.6-6.2,4.2s-3.6,3.4-5.2,5.4c-1.5,2-2.8,3.9-3.9,5.9
			c-1.1,2-1.9,3.9-2.5,5.8C-168.8,314.8-169.1,316.5-169.1,318z M-157.6,258.3c0,1.9,0.4,3.8,1.3,5.7c0.8,1.9,2,3.8,3.5,5.6
			c1.5,1.8,3.3,3.7,5.4,5.5c2.1,1.8,4.4,3.6,6.9,5.4c0.4-3.3,0.7-6.8,1-10.5c0.2-3.7,0.4-7.6,0.4-11.7c0-2.8-0.2-5.2-0.5-7.2
			c-0.4-2-0.8-3.5-1.5-4.8c-0.6-1.2-1.3-2.1-2.2-2.6c-0.8-0.5-1.7-0.8-2.6-0.8c-0.9,0-1.8,0.2-2.7,0.6s-1.8,1-2.7,1.8
			s-1.7,1.6-2.4,2.6c-0.8,1-1.4,2.1-2,3.2c-0.6,1.1-1,2.3-1.3,3.5C-157.4,255.9-157.6,257.1-157.6,258.3z"/>
		<path id="XMLID_66_" d="M-102.2,279.7c0.7,1.4,1.2,2.9,1.6,4.4c0.3,1.5,0.5,3,0.5,4.4s-0.2,2.8-0.5,4.3c-0.3,1.4-0.8,2.8-1.3,4.2
			c-0.6,1.3-1.3,2.6-2.2,3.8c-0.9,1.2-1.8,2.2-2.9,3.1s-2.3,1.5-3.6,2s-2.7,0.8-4.1,0.8c-2.1,0-3.9-0.5-5.4-1.4s-2.7-2.1-3.7-3.6
			s-1.7-3.2-2.1-5c-0.4-1.9-0.7-3.8-0.7-5.7c0-2.6,0.4-5.1,1.2-7.4s1.9-4.3,3.4-6s3.3-3,5.4-4s4.5-1.5,7.2-1.5
			c2.3,0,4.4,0.4,6.4,1.1s3.8,1.7,5.6,2.8c1.7,1.2,3.4,2.5,4.8,4.1c1.5,1.5,2.9,3.1,4.2,4.7l-0.7,5.1c-0.6-0.9-1.5-1.8-2.6-2.8
			s-2.3-2-3.5-2.9c-1.2-1-2.4-1.9-3.6-2.7c-1.2-0.8-2.2-1.6-3.1-2.1L-102.2,279.7z M-113.3,299.7c0.8,0,1.6-0.4,2.4-1.2
			c0.8-0.8,1.4-1.9,2-3.1c0.6-1.3,1-2.6,1.4-4.2c0.3-1.5,0.5-3,0.5-4.4c0-1.1-0.1-2.1-0.3-3.1c-0.2-0.9-0.4-1.8-0.8-2.5
			c-0.3-0.7-0.8-1.2-1.3-1.7c-0.5-0.4-1.2-0.6-1.9-0.6c-1,0-1.9,0.4-2.8,1.3c-0.9,0.8-1.7,1.9-2.3,3.2c-0.7,1.3-1.2,2.7-1.6,4.3
			c-0.4,1.6-0.6,3.1-0.6,4.6c0,1,0.1,2,0.3,2.8c0.2,0.9,0.5,1.7,0.9,2.3c0.4,0.7,0.9,1.2,1.6,1.6
			C-115.1,299.5-114.2,299.7-113.3,299.7z"/>
		<path id="XMLID_69_" d="M-92.9,299.1c0-1.1,0.1-2.3,0.2-3.7c0.1-1.4,0.3-2.9,0.5-4.4c0.2-1.6,0.4-3.1,0.7-4.8
			c0.3-1.6,0.6-3.2,0.9-4.6c0.3-1.5,0.6-2.8,0.9-4s0.6-2.2,0.9-3c0.2-0.5,0.4-0.9,0.6-1.3c0.2-0.3,0.4-0.6,0.7-0.7
			c0.3-0.2,0.6-0.3,0.9-0.4s0.8-0.1,1.4-0.1s1.1,0,1.5,0.1c0.3,0.1,0.6,0.2,0.8,0.4c0.2,0.2,0.3,0.6,0.3,1s0.1,1,0.1,1.8
			c0,0.9,0,2,0,3.2c0,1.3,0,2.5,0.1,3.7h0.4c0.5-1,1-2,1.6-3.2s1.3-2.3,2.1-3.3s1.7-1.9,2.7-2.6s2.2-1.1,3.5-1.1
			c0.5,0,0.9,0.1,1.3,0.2c0.4,0.2,0.8,0.4,1.1,0.7s0.6,0.6,0.8,1.1c0.2,0.4,0.3,0.9,0.3,1.4c0,0.4-0.1,1-0.2,1.7s-0.3,1.5-0.4,2.3
			s-0.3,1.6-0.4,2.3c-0.1,0.8-0.2,1.4-0.2,1.9c0,0.9,0.1,1.6,0.3,2.2s0.4,1,0.7,1.4c0.3,0.4,0.6,0.6,0.9,0.7s0.7,0.2,1.1,0.2
			c1.1,0,2.2-0.2,3.3-0.7s2.2-1,3.2-1.6c1.1-0.7,2.2-1.5,3.3-2.4l-0.5,8.4c-0.6,0.4-1.3,0.9-2.1,1.4s-1.6,1-2.5,1.4
			s-1.8,0.8-2.8,1.1c-1,0.3-2,0.4-3,0.4c-1.8,0-3.2-0.4-4.3-1.1c-1.1-0.7-2-1.7-2.6-2.9c-0.6-1.2-1.1-2.5-1.4-4s-0.6-3-0.8-4.5h-0.6
			l-6.4,17.9c-0.3,0.9-0.7,1.7-1,2.3s-0.6,1.1-0.9,1.5s-0.6,0.7-1,0.8c-0.4,0.2-0.8,0.2-1.2,0.2c-1,0-1.8-0.2-2.4-0.6
			s-1.1-1-1.4-1.7s-0.5-1.5-0.6-2.4C-92.9,300.9-92.9,300-92.9,299.1z"/>
		<path id="XMLID_71_" d="M-47.1,302.8c-1.3,1.1-2.6,2.1-4,2.8c-1.4,0.7-2.8,1.1-4.1,1.1c-1.1,0-2.3-0.2-3.4-0.7s-2.1-1.1-2.9-2
			c-0.8-0.9-1.5-1.9-2-3.2c-0.5-1.3-0.8-2.7-0.8-4.3c0-1.8,0.3-3.6,0.8-5.5s1.2-3.7,2.1-5.5c0.9-1.8,1.9-3.5,3.1-5.1
			c1.2-1.6,2.5-3,4-4.2c1.4-1.2,2.9-2.1,4.5-2.9s3.2-1.1,4.9-1.1c0.5,0,1,0.1,1.3,0.3c0.3,0.2,0.6,0.5,0.8,0.7
			c0.2,0.3,0.4,0.5,0.6,0.8c0.2,0.3,0.4,0.5,0.7,0.6s0.6,0.2,0.9,0.2c0.3,0,0.6,0.1,0.9,0.1c0.3,0,0.5,0,0.8,0s0.5,0,0.8,0
			c0.4,0,0.7,0,1,0.1s0.6,0.2,0.8,0.5s0.4,0.6,0.6,1c0.1,0.4,0.2,1,0.2,1.8c0,0.6,0,1.5-0.1,2.5c-0.1,1.1-0.2,2.2-0.4,3.5
			s-0.4,2.7-0.6,4.1c-0.2,1.4-0.4,2.9-0.6,4.3c-0.5,3.3-1.1,6.8-1.7,10.6c0.7-0.4,1.5-0.9,2.3-1.5s1.8-1.4,2.8-2.4s2.2-2.3,3.4-3.8
			c1.3-1.5,2.7-3.4,4.3-5.7l1.7,8c-0.4,0.7-1,1.5-1.7,2.3s-1.4,1.6-2.3,2.3c-0.8,0.8-1.7,1.5-2.6,2.3c-0.9,0.7-1.8,1.4-2.6,2.1
			c-2,1.5-4.2,3-6.6,4.5c-0.5,2.6-1,5.1-1.6,7.5s-1.4,4.7-2.2,6.8c-0.9,2.1-1.8,4.1-2.9,5.8c-1.1,1.8-2.3,3.3-3.7,4.6
			c-1.4,1.3-2.9,2.3-4.6,3c-1.7,0.7-3.6,1.1-5.6,1.1c-0.8,0-1.7-0.1-2.6-0.3c-0.9-0.2-1.8-0.5-2.6-1s-1.5-1.2-2-2.2
			c-0.5-0.9-0.8-2.2-0.8-3.7c0-1.1,0.3-2.3,0.8-3.6c0.6-1.4,1.3-2.8,2.3-4.3s2.1-3.1,3.4-4.7c1.3-1.6,2.7-3.2,4.3-4.8
			c1.5-1.6,3.2-3.2,4.8-4.7c1.7-1.6,3.4-3,5.1-4.5L-47.1,302.8z M-60.3,333c1,0,2-0.3,2.9-0.9s1.7-1.4,2.5-2.3s1.4-2,2.1-3.3
			c0.7-1.3,1.2-2.5,1.7-3.8s0.9-2.5,1.2-3.8s0.6-2.3,0.8-3.3c-0.9,0.6-1.9,1.4-2.9,2.2c-1,0.9-1.9,1.8-2.8,2.8c-0.9,1-1.8,2-2.6,3.1
			s-1.5,2.1-2.2,3c-0.6,1-1.1,1.9-1.5,2.7c-0.4,0.8-0.5,1.5-0.5,2.1C-61.8,332.5-61.3,333-60.3,333z M-55,294.9c0,0.6,0,1.2,0.1,1.7
			s0.2,1.1,0.4,1.5s0.5,0.8,0.9,1.1c0.4,0.3,0.8,0.4,1.4,0.4c0.9,0,1.7-0.4,2.4-1.1c0.7-0.8,1.3-1.7,1.9-2.8c0.6-1.1,1-2.2,1.3-3.3
			s0.5-2.1,0.6-2.9l2.2-10.6c-1,0-1.9,0.2-2.9,0.7s-1.8,1.2-2.6,2s-1.6,1.8-2.3,2.9s-1.3,2.2-1.8,3.4c-0.5,1.2-0.9,2.4-1.2,3.6
			C-54.9,292.7-55,293.9-55,294.9z"/>
		<path id="XMLID_75_" d="M-31,258.8c-1.6,2.8-2.9,4.9-4.2,6.4c-1.2,1.4-2.2,2.1-3,2.1c-1.1,0-1.6-1.2-1.6-3.6c0-2.3,0.3-4.5,1-6.3
			c0.7-1.9,1.6-3.5,2.8-5c1.2-1.4,2.6-2.7,4.3-3.7s3.5-1.9,5.5-2.5c2-0.7,4.1-1.1,6.3-1.5c2.2-0.3,4.5-0.5,6.8-0.5
			c2.7,0,5.4,0.2,8.1,0.6c2.7,0.4,5.3,1,7.9,1.7s4.9,1.6,7,2.6c2.2,1,4.1,2.1,5.7,3.4c1.6,1.2,2.9,2.6,3.8,4s1.4,2.9,1.4,4.5
			c0,1.8-0.4,3.7-1.2,5.5s-2.1,3.4-3.8,4.9s-3.9,2.6-6.6,3.6c-2.7,0.9-5.9,1.4-9.6,1.5c2.4,0,4.4,0.4,6.2,1.1s3.3,1.8,4.5,3.1
			c1.2,1.3,2.1,2.8,2.7,4.4c0.6,1.7,0.9,3.4,0.9,5.3c0,1.5-0.2,3-0.6,4.6s-1,3.1-1.8,4.5s-1.8,2.8-3.1,4c-1.2,1.3-2.7,2.4-4.3,3.3
			s-3.5,1.7-5.5,2.2c-2.1,0.5-4.3,0.8-6.8,0.8c-1.6,0-3.2-0.1-4.9-0.3c-1.7-0.2-3.5-0.5-5.2-0.8c-1.8-0.3-3.5-0.8-5.2-1.2
			c-1.7-0.5-3.3-1-4.8-1.5c-0.7-0.2-1.3-0.4-1.8-0.8c-0.5-0.3-0.8-0.9-0.8-1.8c0-4,0.1-8,0.3-12.2c0.2-4.2,0.6-8.2,1.2-12.2
			s1.5-7.8,2.7-11.4s2.7-6.8,4.7-9.7c1.7-1.2,3.2-1.8,4.6-1.8c1.7,0,3.2,1,4.4,2.9c-1.1,1.5-2,3.1-2.8,5s-1.4,3.7-2,5.7
			s-1,4-1.3,6.1s-0.6,4.1-0.8,6.1c-0.1,1.1-0.2,2.3-0.3,3.6s-0.2,2.6-0.2,3.9c-0.1,1.3-0.1,2.6-0.2,3.9c0,1.3-0.1,2.6-0.1,3.8
			c0,0.2,0,0.5,0,0.8s0,0.7,0.1,1c0,0.4,0.1,0.7,0.2,1s0.2,0.5,0.4,0.7c1.5,0.5,3,0.9,4.7,1.2c1.7,0.3,3.4,0.5,5,0.5
			c2,0,4-0.2,5.9-0.7s3.6-1.3,5.1-2.3c1.5-1.1,2.7-2.4,3.6-4.1s1.3-3.7,1.3-6c0-1.4-0.3-2.5-0.8-3.5c-0.5-0.9-1.2-1.7-2.1-2.3
			c-0.8-0.6-1.8-1.1-2.9-1.5s-2.2-0.7-3.3-1s-2.3-0.6-3.3-0.9c-1.1-0.3-2.1-0.7-2.9-1.1s-1.5-1-2.1-1.7c-0.5-0.7-0.8-1.5-0.8-2.6
			c0-0.5,0-0.9,0.1-1.3s0.2-0.7,0.4-0.9c0.2-0.2,0.6-0.4,1-0.5s1-0.2,1.8-0.2c1,0,2,0,2.8,0.1s1.8,0.1,2.7,0.1
			c2.3,0,4.4-0.3,6.2-0.8s3.4-1.3,4.7-2.3s2.3-2.1,3-3.4s1.1-2.6,1.1-4.1c0-1-0.3-1.8-0.8-2.6c-0.5-0.8-1.3-1.5-2.3-2.2
			c-1-0.6-2.2-1.2-3.5-1.7s-2.8-0.9-4.4-1.2s-3.2-0.6-5-0.7c-1.7-0.2-3.5-0.2-5.3-0.2c-2.3,0-4.5,0.1-6.7,0.4s-4.3,0.6-6.2,1.1
			c-1.9,0.5-3.6,1.2-5.1,1.9C-29.2,256.9-30.3,257.8-31,258.8z"/>
		<path id="XMLID_77_" d="M39.8,279.7c0.7,1.4,1.2,2.9,1.6,4.4c0.3,1.5,0.5,3,0.5,4.4s-0.2,2.8-0.5,4.3c-0.3,1.4-0.8,2.8-1.3,4.2
			c-0.6,1.3-1.3,2.6-2.2,3.8c-0.8,1.2-1.8,2.2-2.9,3.1s-2.3,1.5-3.6,2s-2.7,0.8-4.1,0.8c-2.1,0-3.9-0.5-5.4-1.4s-2.7-2.1-3.7-3.6
			s-1.7-3.2-2.1-5c-0.4-1.9-0.7-3.8-0.7-5.7c0-2.6,0.4-5.1,1.2-7.4c0.8-2.3,1.9-4.3,3.4-6s3.3-3,5.4-4s4.5-1.5,7.2-1.5
			c2.3,0,4.4,0.4,6.4,1.1s3.8,1.7,5.6,2.8c1.7,1.2,3.3,2.5,4.8,4.1s2.9,3.1,4.2,4.7l-0.7,5.1c-0.6-0.9-1.5-1.8-2.6-2.8
			s-2.3-2-3.5-2.9c-1.2-1-2.4-1.9-3.6-2.7s-2.2-1.6-3.1-2.1L39.8,279.7z M28.7,299.7c0.8,0,1.6-0.4,2.4-1.2s1.4-1.9,2-3.1
			c0.6-1.3,1-2.6,1.4-4.2c0.3-1.5,0.5-3,0.5-4.4c0-1.1-0.1-2.1-0.3-3.1c-0.2-0.9-0.4-1.8-0.8-2.5c-0.4-0.7-0.8-1.2-1.3-1.7
			c-0.5-0.4-1.2-0.6-1.9-0.6c-1,0-1.9,0.4-2.8,1.3c-0.9,0.8-1.7,1.9-2.3,3.2c-0.7,1.3-1.2,2.7-1.6,4.3s-0.6,3.1-0.6,4.6
			c0,1,0.1,2,0.3,2.8c0.2,0.9,0.5,1.7,0.9,2.3s0.9,1.2,1.6,1.6C27,299.5,27.8,299.7,28.7,299.7z"/>
		<path id="XMLID_80_" d="M79,298.5c-2.3,1.3-4.3,2.5-6.1,3.5s-3.4,1.8-4.8,2.5s-2.6,1.2-3.7,1.5c-1.1,0.3-2.1,0.5-3,0.5
			c-1.8,0-3.4-0.5-4.8-1.7c-1.4-1.1-2.5-2.7-3.5-4.8c-0.9-2.1-1.6-4.6-2.1-7.5s-0.7-6.3-0.7-9.9c0-1.4,0.1-3,0.2-4.6
			s0.3-3.2,0.5-4.8c-0.7-0.1-1.3-0.2-1.7-0.3c-0.4-0.1-0.8-0.2-1.3-0.3c-0.4-0.1-1-0.2-1.7-0.3s-1.7-0.2-3-0.4
			c-0.6-0.1-1-0.2-1.3-0.4c-0.3-0.2-0.5-0.4-0.7-0.7c-0.1-0.3-0.2-0.6-0.3-0.9c0-0.3,0-0.6,0-0.8c0-0.5,0.2-0.8,0.7-1.1
			c0.5-0.3,1.1-0.4,1.8-0.6c0.7-0.1,1.5-0.2,2.4-0.2s1.7,0,2.5,0s1.5,0,2.2,0.1c0.6,0,1.1,0,1.3-0.1c0.6-3.2,1.5-6.4,2.5-9.4
			s2.1-5.7,3.3-8.1c1.2-2.4,2.6-4.2,4-5.7c1.5-1.4,3-2.1,4.6-2.1c1,0,2,0.3,2.8,0.9s1.6,1.3,2.2,2.3s1.1,2.1,1.4,3.4
			c0.3,1.3,0.5,2.6,0.5,4c0,1.2-0.2,2.4-0.5,3.7c-0.3,1.3-0.8,2.6-1.4,4s-1.3,2.7-2,4.1c-0.8,1.4-1.6,2.8-2.5,4.1
			c0.2,0,0.6,0,1.1,0.1c0.5,0,1.1,0,1.7,0.1c0.7,0,1.4,0.1,2.1,0.1c0.8,0,1.5,0.1,2.2,0.1s1.4,0,2,0.1c0.6,0,1.1,0,1.5,0.1
			c0.5,0,0.8,0.3,1,0.7c0.2,0.5,0.3,1,0.3,1.7c0,0.8-0.2,1.5-0.7,2s-1,0.8-1.6,0.8H62.9c-0.7,1-1.4,1.9-2.1,2.8
			c-0.7,0.9-1.4,1.8-2,2.5c-0.1,1.5-0.2,2.9-0.3,4.4c0,0.6,0,1.3-0.1,1.9c0,0.7,0,1.3-0.1,2c0,0.6,0,1.3-0.1,1.9c0,0.6,0,1.1,0,1.7
			c0,1.3,0.1,2.4,0.4,3.3s0.6,1.6,1,2.2c0.5,0.6,1,1,1.7,1.2c0.7,0.3,1.4,0.4,2.2,0.4c0.5,0,1.1-0.1,1.9-0.4c0.8-0.3,1.6-0.6,2.5-1
			s1.8-0.9,2.8-1.5s2-1.2,2.9-1.9c1-0.7,1.9-1.4,2.8-2.2c0.9-0.8,1.7-1.5,2.4-2.3v9.3L79,298.5L79,298.5z M67.5,253.1
			c0-0.3,0-0.6-0.1-0.9c0-0.3-0.1-0.6-0.2-0.9c-0.1-0.3-0.3-0.5-0.6-0.7c-0.3-0.2-0.6-0.3-1.1-0.3c-0.6,0-1.3,0.6-1.9,1.7
			c-0.6,1.1-1.2,2.5-1.8,4.2c-0.6,1.7-1.1,3.6-1.7,5.7c-0.5,2.1-1,4.1-1.4,6c0.4,0,0.7,0.1,1.1,0.1s0.7,0.1,1.1,0.1
			c0.7-1.2,1.5-2.5,2.2-4c0.8-1.4,1.5-2.8,2.1-4.2s1.1-2.7,1.5-3.9C67.3,254.8,67.5,253.8,67.5,253.1z"/>
	</g>
</g>
<g id="XMLID_61_">
</g>
<g id="XMLID_83_">
</g>
<g id="XMLID_84_">
</g>
<g id="XMLID_85_">
</g>
<g id="XMLID_86_">
</g>
<g id="XMLID_87_">
</g>
<g id="XMLID_88_">
</g>
<g id="XMLID_89_">
</g>
<g id="XMLID_90_">
</g>
<g id="XMLID_91_">
</g>
<g id="XMLID_92_">
</g>
<g id="XMLID_93_">
</g>
<g id="XMLID_94_">
</g>
<g id="XMLID_95_">
</g>
<g id="XMLID_96_">
</g>
</svg>
