<?xml version="1.0" encoding="utf-8"?>
<!-- Generator: Adobe Illustrator 19.0.0, SVG Export Plug-In . SVG Version: 6.00 Build 0)  -->
<svg version="1.1" id="Capa_1" xmlns="http://www.w3.org/2000/svg" xmlns:xlink="http://www.w3.org/1999/xlink" x="0px" y="0px"
	 width="381px" height="153.5px" viewBox="-289 204.5 381 153.5" style="enable-background:new -289 204.5 381 153.5;"
	 xml:space="preserve">
<style type="text/css">
	.st0{fill:#FEFEFE;}
</style>
<g id="XMLID_1_">
	<g id="XMLID_2_">
		<circle id="XMLID_6_" class="st0" cx="-247" cy="237" r="4.7"/>
		<circle id="XMLID_5_" class="st0" cx="-234.5" cy="227.2" r="5.4"/>
		<path id="XMLID_3_" class="st0" d="M-209.3,312.9l-21.3-35.2v-19.6h0.6c3.1,0,5.6-2.5,5.6-5.6s-2.5-5.6-5.6-5.6h-24.9
			c-3.1,0-5.6,2.5-5.6,5.6s2.5,5.6,5.6,5.6h0.5v19.7l-21.3,35.2c-3.7,7.5,1.7,16.3,10.1,16.3h46.2
			C-211,329.2-205.5,320.4-209.3,312.9z M-227.5,318.6h-30c-3.4,0-5.3-3.8-3.4-6.5l15.3-22.2c1.7-2.4,5.3-2.4,6.9,0.1l14.7,22.2
			C-222.2,314.9-224.2,318.6-227.5,318.6z"/>
	</g>
	<g id="XMLID_8_">
		<path id="XMLID_62_" class="st0" d="M-179.2,315.2c0-3.2,0.6-6.5,1.8-9.9c1.2-3.4,3-6.5,5.3-9.5s5-5.7,8.2-8
			c3.2-2.4,6.8-4.1,10.7-5.4c-2-1.7-3.9-3.4-5.7-5.2c-1.8-1.8-3.3-3.7-4.6-5.6c-1.3-1.9-2.4-3.8-3.1-5.7c-0.8-1.9-1.1-3.8-1.1-5.8
			c0-2.4,0.3-4.8,0.8-7c0.5-2.2,1.3-4.2,2.2-6.1s2.1-3.6,3.4-5.1s2.7-2.8,4.2-3.9s3-1.9,4.6-2.5s3.2-0.9,4.9-0.9
			c2.2,0,4.2,0.6,6.2,1.7c2,1.1,3.8,2.8,5.3,5.2c1.6,2.4,2.8,5.5,3.7,9.3s1.4,8.4,1.4,13.8c0,3.9-0.1,7.6-0.4,11.1
			c-0.3,3.5-0.7,6.9-1.2,10.1c1.5,0.9,2.9,1.8,4.4,2.7s3,1.7,4.5,2.6c0.3,0.2,0.7,0.4,1.2,0.7s0.9,0.5,1.4,0.8
			c0.4,0.3,0.8,0.6,1.1,0.9c0.3,0.3,0.5,0.6,0.5,0.8s-0.1,0.5-0.3,0.7c-0.2,0.2-0.4,0.4-0.7,0.6c-0.3,0.2-0.6,0.4-0.8,0.5
			c-0.3,0.1-0.5,0.3-0.6,0.3c-0.4,0.2-0.9,0.3-1.6,0.3c-1.3,0-2.9-0.3-4.7-0.8s-3.8-1.2-5.9-2.1c-1.1,4.4-2.3,8.5-3.8,12.2
			c-1.5,3.7-3.1,7-4.8,9.9s-3.6,5.5-5.5,7.6c-2,2.2-3.9,4-5.9,5.4s-4,2.5-6,3.2c-2,0.7-3.9,1.1-5.7,1.1c-1.9,0-3.6-0.4-5.3-1.1
			c-1.6-0.8-3-1.9-4.2-3.4s-2.1-3.4-2.8-5.7C-178.8,320.9-179.2,318.2-179.2,315.2z M-170,317.5c0,2.4,0.5,4.3,1.4,5.5
			c0.9,1.3,2.2,1.9,3.8,1.9c1.6,0,3.4-0.7,5.4-2.1c2-1.4,4-3.5,6-6.4s3.9-6.6,5.8-11.1c1.8-4.5,3.4-9.8,4.6-16l-1.3-0.8
			c-2.4,0.5-4.8,1.3-7,2.5s-4.3,2.6-6.2,4.2c-1.9,1.6-3.6,3.4-5.2,5.4c-1.5,2-2.8,3.9-3.9,5.9c-1.1,2-1.9,3.9-2.5,5.8
			C-169.7,314.3-170,316-170,317.5z M-158.5,257.8c0,1.9,0.4,3.8,1.3,5.7c0.8,1.9,2,3.8,3.5,5.6c1.5,1.8,3.3,3.7,5.4,5.5
			c2.1,1.8,4.4,3.6,6.9,5.4c0.4-3.3,0.7-6.8,1-10.5c0.2-3.7,0.4-7.6,0.4-11.7c0-2.8-0.2-5.2-0.5-7.2c-0.4-2-0.8-3.5-1.5-4.8
			c-0.6-1.2-1.3-2.1-2.2-2.6c-0.8-0.5-1.7-0.8-2.6-0.8c-0.9,0-1.8,0.2-2.7,0.6s-1.8,1-2.7,1.8s-1.7,1.6-2.4,2.6
			c-0.8,1-1.4,2.1-2,3.2c-0.6,1.1-1,2.3-1.3,3.5C-158.3,255.4-158.5,256.6-158.5,257.8z"/>
		<path id="XMLID_66_" class="st0" d="M-103.1,279.2c0.7,1.4,1.2,2.9,1.6,4.4c0.3,1.5,0.5,3,0.5,4.4s-0.2,2.8-0.5,4.3
			c-0.3,1.4-0.8,2.8-1.3,4.2c-0.6,1.3-1.3,2.6-2.2,3.8c-0.9,1.2-1.8,2.2-2.9,3.1c-1.1,0.9-2.3,1.5-3.6,2s-2.7,0.8-4.1,0.8
			c-2.1,0-3.9-0.5-5.4-1.4c-1.5-0.9-2.7-2.1-3.7-3.6s-1.7-3.2-2.1-5c-0.4-1.9-0.7-3.8-0.7-5.7c0-2.6,0.4-5.1,1.2-7.4s1.9-4.3,3.4-6
			s3.3-3,5.4-4c2.1-1,4.5-1.5,7.2-1.5c2.3,0,4.4,0.4,6.4,1.1c2,0.7,3.8,1.7,5.6,2.8c1.7,1.2,3.4,2.5,4.8,4.1
			c1.5,1.5,2.9,3.1,4.2,4.7l-0.7,5.1c-0.6-0.9-1.5-1.8-2.6-2.8s-2.3-2-3.5-2.9c-1.2-1-2.4-1.9-3.6-2.7c-1.2-0.8-2.2-1.6-3.1-2.1
			L-103.1,279.2z M-114.2,299.2c0.8,0,1.6-0.4,2.4-1.2c0.8-0.8,1.4-1.9,2-3.1c0.6-1.3,1-2.6,1.4-4.2c0.3-1.5,0.5-3,0.5-4.4
			c0-1.1-0.1-2.1-0.3-3.1c-0.2-0.9-0.4-1.8-0.8-2.5c-0.3-0.7-0.8-1.2-1.3-1.7c-0.5-0.4-1.2-0.6-1.9-0.6c-1,0-1.9,0.4-2.8,1.3
			c-0.9,0.8-1.7,1.9-2.3,3.2c-0.7,1.3-1.2,2.7-1.6,4.3c-0.4,1.6-0.6,3.1-0.6,4.6c0,1,0.1,2,0.3,2.8c0.2,0.9,0.5,1.7,0.9,2.3
			c0.4,0.7,0.9,1.2,1.6,1.6C-116,299-115.1,299.2-114.2,299.2z"/>
		<path id="XMLID_69_" class="st0" d="M-93.8,298.6c0-1.1,0.1-2.3,0.2-3.7c0.1-1.4,0.3-2.9,0.5-4.4c0.2-1.6,0.4-3.1,0.7-4.8
			c0.3-1.6,0.6-3.2,0.9-4.6c0.3-1.5,0.6-2.8,0.9-4c0.3-1.2,0.6-2.2,0.9-3c0.2-0.5,0.4-0.9,0.6-1.3c0.2-0.3,0.4-0.6,0.7-0.7
			c0.3-0.2,0.6-0.3,0.9-0.4c0.3-0.1,0.8-0.1,1.4-0.1c0.6,0,1.1,0,1.5,0.1c0.3,0.1,0.6,0.2,0.8,0.4c0.2,0.2,0.3,0.6,0.3,1
			s0.1,1,0.1,1.8c0,0.9,0,2,0,3.2c0,1.3,0,2.5,0.1,3.7h0.4c0.5-1,1-2,1.6-3.2c0.6-1.2,1.3-2.3,2.1-3.3s1.7-1.9,2.7-2.6
			c1-0.7,2.2-1.1,3.5-1.1c0.5,0,0.9,0.1,1.3,0.2c0.4,0.2,0.8,0.4,1.1,0.7s0.6,0.6,0.8,1.1c0.2,0.4,0.3,0.9,0.3,1.4
			c0,0.4-0.1,1-0.2,1.7c-0.1,0.7-0.3,1.5-0.4,2.3c-0.1,0.8-0.3,1.6-0.4,2.3c-0.1,0.8-0.2,1.4-0.2,1.9c0,0.9,0.1,1.6,0.3,2.2
			s0.4,1,0.7,1.4c0.3,0.4,0.6,0.6,0.9,0.7c0.3,0.1,0.7,0.2,1.1,0.2c1.1,0,2.2-0.2,3.3-0.7s2.2-1,3.2-1.6c1.1-0.7,2.2-1.5,3.3-2.4
			l-0.5,8.4c-0.6,0.4-1.3,0.9-2.1,1.4s-1.6,1-2.5,1.4c-0.9,0.4-1.8,0.8-2.8,1.1c-1,0.3-2,0.4-3,0.4c-1.8,0-3.2-0.4-4.3-1.1
			c-1.1-0.7-2-1.7-2.6-2.9c-0.6-1.2-1.1-2.5-1.4-4c-0.3-1.5-0.6-3-0.8-4.5h-0.6l-6.4,17.9c-0.3,0.9-0.7,1.7-1,2.3s-0.6,1.1-0.9,1.5
			c-0.3,0.4-0.6,0.7-1,0.8c-0.4,0.2-0.8,0.2-1.2,0.2c-1,0-1.8-0.2-2.4-0.6c-0.6-0.4-1.1-1-1.4-1.7c-0.3-0.7-0.5-1.5-0.6-2.4
			C-93.8,300.4-93.8,299.5-93.8,298.6z"/>
		<path id="XMLID_71_" class="st0" d="M-48,302.3c-1.3,1.1-2.6,2.1-4,2.8c-1.4,0.7-2.8,1.1-4.1,1.1c-1.1,0-2.3-0.2-3.4-0.7
			s-2.1-1.1-2.9-2c-0.8-0.9-1.5-1.9-2-3.2c-0.5-1.3-0.8-2.7-0.8-4.3c0-1.8,0.3-3.6,0.8-5.5c0.5-1.9,1.2-3.7,2.1-5.5
			c0.9-1.8,1.9-3.5,3.1-5.1c1.2-1.6,2.5-3,4-4.2c1.4-1.2,2.9-2.1,4.5-2.9c1.6-0.8,3.2-1.1,4.9-1.1c0.5,0,1,0.1,1.3,0.3
			c0.3,0.2,0.6,0.5,0.8,0.7c0.2,0.3,0.4,0.5,0.6,0.8c0.2,0.3,0.4,0.5,0.7,0.6s0.6,0.2,0.9,0.2c0.3,0,0.6,0.1,0.9,0.1
			c0.3,0,0.5,0,0.8,0s0.5,0,0.8,0c0.4,0,0.7,0,1,0.1c0.3,0.1,0.6,0.2,0.8,0.5c0.2,0.3,0.4,0.6,0.6,1c0.1,0.4,0.2,1,0.2,1.8
			c0,0.6,0,1.5-0.1,2.5c-0.1,1.1-0.2,2.2-0.4,3.5c-0.2,1.3-0.4,2.7-0.6,4.1c-0.2,1.4-0.4,2.9-0.6,4.3c-0.5,3.3-1.1,6.8-1.7,10.6
			c0.7-0.4,1.5-0.9,2.3-1.5s1.8-1.4,2.8-2.4s2.2-2.3,3.4-3.8c1.3-1.5,2.7-3.4,4.3-5.7l1.7,8c-0.4,0.7-1,1.5-1.7,2.3
			s-1.4,1.6-2.3,2.3c-0.8,0.8-1.7,1.5-2.6,2.3c-0.9,0.7-1.8,1.4-2.6,2.1c-2,1.5-4.2,3-6.6,4.5c-0.5,2.6-1,5.1-1.6,7.5
			c-0.6,2.4-1.4,4.7-2.2,6.8c-0.9,2.1-1.8,4.1-2.9,5.8c-1.1,1.8-2.3,3.3-3.7,4.6c-1.4,1.3-2.9,2.3-4.6,3c-1.7,0.7-3.6,1.1-5.6,1.1
			c-0.8,0-1.7-0.1-2.6-0.3c-0.9-0.2-1.8-0.5-2.6-1s-1.5-1.2-2-2.2c-0.5-0.9-0.8-2.2-0.8-3.7c0-1.1,0.3-2.3,0.8-3.6
			c0.6-1.4,1.3-2.8,2.3-4.3s2.1-3.1,3.4-4.7c1.3-1.6,2.7-3.2,4.3-4.8c1.5-1.6,3.2-3.2,4.8-4.7c1.7-1.6,3.4-3,5.1-4.5L-48,302.3z
			 M-61.2,332.5c1,0,2-0.3,2.9-0.9s1.7-1.4,2.5-2.3c0.8-0.9,1.4-2,2.1-3.3c0.7-1.3,1.2-2.5,1.7-3.8c0.5-1.3,0.9-2.5,1.2-3.8
			c0.3-1.3,0.6-2.3,0.8-3.3c-0.9,0.6-1.9,1.4-2.9,2.2c-1,0.9-1.9,1.8-2.8,2.8c-0.9,1-1.8,2-2.6,3.1s-1.5,2.1-2.2,3
			c-0.6,1-1.1,1.9-1.5,2.7c-0.4,0.8-0.5,1.5-0.5,2.1C-62.7,332-62.2,332.5-61.2,332.5z M-55.9,294.4c0,0.6,0,1.2,0.1,1.7
			s0.2,1.1,0.4,1.5s0.5,0.8,0.9,1.1c0.4,0.3,0.8,0.4,1.4,0.4c0.9,0,1.7-0.4,2.4-1.1c0.7-0.8,1.3-1.7,1.9-2.8c0.6-1.1,1-2.2,1.3-3.3
			s0.5-2.1,0.6-2.9l2.2-10.6c-1,0-1.9,0.2-2.9,0.7s-1.8,1.2-2.6,2c-0.8,0.8-1.6,1.8-2.3,2.9c-0.7,1.1-1.3,2.2-1.8,3.4
			c-0.5,1.2-0.9,2.4-1.2,3.6C-55.8,292.2-55.9,293.4-55.9,294.4z"/>
		<path id="XMLID_75_" class="st0" d="M-31.9,258.3c-1.6,2.8-2.9,4.9-4.2,6.4c-1.2,1.4-2.2,2.1-3,2.1c-1.1,0-1.6-1.2-1.6-3.6
			c0-2.3,0.3-4.5,1-6.3c0.7-1.9,1.6-3.5,2.8-5c1.2-1.4,2.6-2.7,4.3-3.7c1.7-1,3.5-1.9,5.5-2.5c2-0.7,4.1-1.1,6.3-1.5
			c2.2-0.3,4.5-0.5,6.8-0.5c2.7,0,5.4,0.2,8.1,0.6c2.7,0.4,5.3,1,7.9,1.7s4.9,1.6,7,2.6c2.2,1,4.1,2.1,5.7,3.4
			c1.6,1.2,2.9,2.6,3.8,4s1.4,2.9,1.4,4.5c0,1.8-0.4,3.7-1.2,5.5s-2.1,3.4-3.8,4.9s-3.9,2.6-6.6,3.6c-2.7,0.9-5.9,1.4-9.6,1.5
			c2.4,0,4.4,0.4,6.2,1.1c1.8,0.7,3.3,1.8,4.5,3.1c1.2,1.3,2.1,2.8,2.7,4.4c0.6,1.7,0.9,3.4,0.9,5.3c0,1.5-0.2,3-0.6,4.6
			s-1,3.1-1.8,4.5s-1.8,2.8-3.1,4c-1.2,1.3-2.7,2.4-4.3,3.3c-1.6,0.9-3.5,1.7-5.5,2.2c-2.1,0.5-4.3,0.8-6.8,0.8
			c-1.6,0-3.2-0.1-4.9-0.3c-1.7-0.2-3.5-0.5-5.2-0.8c-1.8-0.3-3.5-0.8-5.2-1.2c-1.7-0.5-3.3-1-4.8-1.5c-0.7-0.2-1.3-0.4-1.8-0.8
			c-0.5-0.3-0.8-0.9-0.8-1.8c0-4,0.1-8,0.3-12.2c0.2-4.2,0.6-8.2,1.2-12.2s1.5-7.8,2.7-11.4s2.7-6.8,4.7-9.7
			c1.7-1.2,3.2-1.8,4.6-1.8c1.7,0,3.2,1,4.4,2.9c-1.1,1.5-2,3.1-2.8,5s-1.4,3.7-2,5.7s-1,4-1.3,6.1c-0.3,2.1-0.6,4.1-0.8,6.1
			c-0.1,1.1-0.2,2.3-0.3,3.6s-0.2,2.6-0.2,3.9c-0.1,1.3-0.1,2.6-0.2,3.9c0,1.3-0.1,2.6-0.1,3.8c0,0.2,0,0.5,0,0.8c0,0.3,0,0.7,0.1,1
			c0,0.4,0.1,0.7,0.2,1c0.1,0.3,0.2,0.5,0.4,0.7c1.5,0.5,3,0.9,4.7,1.2c1.7,0.3,3.4,0.5,5,0.5c2,0,4-0.2,5.9-0.7s3.6-1.3,5.1-2.3
			c1.5-1.1,2.7-2.4,3.6-4.1c0.9-1.7,1.3-3.7,1.3-6c0-1.4-0.3-2.5-0.8-3.5c-0.5-0.9-1.2-1.7-2.1-2.3c-0.8-0.6-1.8-1.1-2.9-1.5
			s-2.2-0.7-3.3-1c-1.1-0.3-2.3-0.6-3.3-0.9c-1.1-0.3-2.1-0.7-2.9-1.1s-1.5-1-2.1-1.7c-0.5-0.7-0.8-1.5-0.8-2.6c0-0.5,0-0.9,0.1-1.3
			c0.1-0.4,0.2-0.7,0.4-0.9c0.2-0.2,0.6-0.4,1-0.5s1-0.2,1.8-0.2c1,0,2,0,2.8,0.1c0.8,0.1,1.8,0.1,2.7,0.1c2.3,0,4.4-0.3,6.2-0.8
			s3.4-1.3,4.7-2.3c1.3-1,2.3-2.1,3-3.4c0.7-1.3,1.1-2.6,1.1-4.1c0-1-0.3-1.8-0.8-2.6c-0.5-0.8-1.3-1.5-2.3-2.2
			c-1-0.6-2.2-1.2-3.5-1.7s-2.8-0.9-4.4-1.2s-3.2-0.6-5-0.7c-1.7-0.2-3.5-0.2-5.3-0.2c-2.3,0-4.5,0.1-6.7,0.4s-4.3,0.6-6.2,1.1
			c-1.9,0.5-3.6,1.2-5.1,1.9C-30.1,256.4-31.2,257.3-31.9,258.3z"/>
		<path id="XMLID_77_" class="st0" d="M38.9,279.2c0.7,1.4,1.2,2.9,1.6,4.4c0.3,1.5,0.5,3,0.5,4.4s-0.2,2.8-0.5,4.3
			c-0.3,1.4-0.8,2.8-1.3,4.2c-0.6,1.3-1.3,2.6-2.2,3.8c-0.8,1.2-1.8,2.2-2.9,3.1s-2.3,1.5-3.6,2s-2.7,0.8-4.1,0.8
			c-2.1,0-3.9-0.5-5.4-1.4c-1.5-0.9-2.7-2.1-3.7-3.6s-1.7-3.2-2.1-5c-0.4-1.9-0.7-3.8-0.7-5.7c0-2.6,0.4-5.1,1.2-7.4
			c0.8-2.3,1.9-4.3,3.4-6s3.3-3,5.4-4s4.5-1.5,7.2-1.5c2.3,0,4.4,0.4,6.4,1.1c2,0.7,3.8,1.7,5.6,2.8c1.7,1.2,3.3,2.5,4.8,4.1
			s2.9,3.1,4.2,4.7l-0.7,5.1c-0.6-0.9-1.5-1.8-2.6-2.8s-2.3-2-3.5-2.9c-1.2-1-2.4-1.9-3.6-2.7s-2.2-1.6-3.1-2.1L38.9,279.2z
			 M27.8,299.2c0.8,0,1.6-0.4,2.4-1.2s1.4-1.9,2-3.1c0.6-1.3,1-2.6,1.4-4.2c0.3-1.5,0.5-3,0.5-4.4c0-1.1-0.1-2.1-0.3-3.1
			c-0.2-0.9-0.4-1.8-0.8-2.5c-0.4-0.7-0.8-1.2-1.3-1.7c-0.5-0.4-1.2-0.6-1.9-0.6c-1,0-1.9,0.4-2.8,1.3c-0.9,0.8-1.7,1.9-2.3,3.2
			c-0.7,1.3-1.2,2.7-1.6,4.3s-0.6,3.1-0.6,4.6c0,1,0.1,2,0.3,2.8c0.2,0.9,0.5,1.7,0.9,2.3s0.9,1.2,1.6,1.6
			C26.1,299,26.9,299.2,27.8,299.2z"/>
		<path id="XMLID_80_" class="st0" d="M78.1,298c-2.3,1.3-4.3,2.5-6.1,3.5s-3.4,1.8-4.8,2.5s-2.6,1.2-3.7,1.5s-2.1,0.5-3,0.5
			c-1.8,0-3.4-0.5-4.8-1.7c-1.4-1.1-2.5-2.7-3.5-4.8c-0.9-2.1-1.6-4.6-2.1-7.5s-0.7-6.3-0.7-9.9c0-1.4,0.1-3,0.2-4.6
			s0.3-3.2,0.5-4.8c-0.7-0.1-1.3-0.2-1.7-0.3c-0.4-0.1-0.8-0.2-1.3-0.3c-0.4-0.1-1-0.2-1.7-0.3s-1.7-0.2-3-0.4
			c-0.6-0.1-1-0.2-1.3-0.4c-0.3-0.2-0.5-0.4-0.7-0.7c-0.1-0.3-0.2-0.6-0.3-0.9c0-0.3,0-0.6,0-0.8c0-0.5,0.2-0.8,0.7-1.1
			c0.5-0.3,1.1-0.4,1.8-0.6c0.7-0.1,1.5-0.2,2.4-0.2s1.7,0,2.5,0s1.5,0,2.2,0.1c0.6,0,1.1,0,1.3-0.1c0.6-3.2,1.5-6.4,2.5-9.4
			s2.1-5.7,3.3-8.1c1.2-2.4,2.6-4.2,4-5.7c1.5-1.4,3-2.1,4.6-2.1c1,0,2,0.3,2.8,0.9s1.6,1.3,2.2,2.3s1.1,2.1,1.4,3.4
			c0.3,1.3,0.5,2.6,0.5,4c0,1.2-0.2,2.4-0.5,3.7s-0.8,2.6-1.4,4c-0.6,1.4-1.3,2.7-2,4.1c-0.8,1.4-1.6,2.8-2.5,4.1
			c0.2,0,0.6,0,1.1,0.1c0.5,0,1.1,0,1.7,0.1c0.7,0,1.4,0.1,2.1,0.1c0.8,0,1.5,0.1,2.2,0.1s1.4,0,2,0.1c0.6,0,1.1,0,1.5,0.1
			c0.5,0,0.8,0.3,1,0.7c0.2,0.5,0.3,1,0.3,1.7c0,0.8-0.2,1.5-0.7,2s-1,0.8-1.6,0.8H62c-0.7,1-1.4,1.9-2.1,2.8
			c-0.7,0.9-1.4,1.8-2,2.5c-0.1,1.5-0.2,2.9-0.3,4.4c0,0.6,0,1.3-0.1,1.9c0,0.7,0,1.3-0.1,2c0,0.6,0,1.3-0.1,1.9c0,0.6,0,1.1,0,1.7
			c0,1.3,0.1,2.4,0.4,3.3s0.6,1.6,1,2.2c0.5,0.6,1,1,1.7,1.2c0.7,0.3,1.4,0.4,2.2,0.4c0.5,0,1.1-0.1,1.9-0.4c0.8-0.3,1.6-0.6,2.5-1
			c0.9-0.4,1.8-0.9,2.8-1.5c1-0.6,2-1.2,2.9-1.9c1-0.7,1.9-1.4,2.8-2.2c0.9-0.8,1.7-1.5,2.4-2.3v9.3H78.1z M66.6,252.6
			c0-0.3,0-0.6-0.1-0.9c0-0.3-0.1-0.6-0.2-0.9c-0.1-0.3-0.3-0.5-0.6-0.7c-0.3-0.2-0.6-0.3-1.1-0.3c-0.6,0-1.3,0.6-1.9,1.7
			s-1.2,2.5-1.8,4.2c-0.6,1.7-1.1,3.6-1.7,5.7c-0.5,2.1-1,4.1-1.4,6c0.4,0,0.7,0.1,1.1,0.1s0.7,0.1,1.1,0.1c0.7-1.2,1.5-2.5,2.2-4
			c0.8-1.4,1.5-2.8,2.1-4.2s1.1-2.7,1.5-3.9C66.4,254.3,66.6,253.3,66.6,252.6z"/>
	</g>
</g>
<g id="XMLID_61_">
</g>
<g id="XMLID_83_">
</g>
<g id="XMLID_84_">
</g>
<g id="XMLID_85_">
</g>
<g id="XMLID_86_">
</g>
<g id="XMLID_87_">
</g>
<g id="XMLID_88_">
</g>
<g id="XMLID_89_">
</g>
<g id="XMLID_90_">
</g>
<g id="XMLID_91_">
</g>
<g id="XMLID_92_">
</g>
<g id="XMLID_93_">
</g>
<g id="XMLID_94_">
</g>
<g id="XMLID_95_">
</g>
<g id="XMLID_96_">
</g>
</svg>
